<?xml version="1.0" encoding="UTF-8"?>
<svg version="1.1" xmlns="http://www.w3.org/2000/svg" width="800" height="800">
<path d="M0 0 C14.75979766 -0.2103959 29.51939647 -0.36902296 44.28038979 -0.46630955 C51.13453979 -0.51268613 57.98775726 -0.57589022 64.84130859 -0.67895508 C71.45484691 -0.77836303 78.0676709 -0.83055179 84.68198776 -0.85389519 C87.20590851 -0.87053103 89.72977592 -0.90301812 92.25328445 -0.95157051 C95.78802448 -1.01687704 99.31875812 -1.02590378 102.85400391 -1.02172852 C104.42062271 -1.07026474 104.42062271 -1.07026474 106.01889038 -1.11978149 C112.97496409 -1.03082664 112.97496409 -1.03082664 115.95384121 1.96487904 C117.49735386 4.25172496 118.77735312 6.52951828 120 9 C120.62044189 10.00844971 121.24088379 11.01689941 121.88012695 12.0559082 C122.41081787 12.96171631 122.94150879 13.86752441 123.48828125 14.80078125 C124.1030835 15.84540527 124.71788574 16.8900293 125.35131836 17.96630859 C125.9985083 19.07055176 126.64569824 20.17479492 127.3125 21.3125 C128.73471382 23.72920423 130.15970632 26.14425847 131.5859375 28.55859375 C131.94995163 29.17486633 132.31396576 29.79113892 132.68901062 30.42608643 C136.54686018 36.94466676 140.49090775 43.40992251 144.4375 49.875 C150.22458987 59.35993631 155.90362138 68.90136079 161.5 78.5 C167.03545499 87.99359182 172.65091985 97.43139634 178.375 106.8125 C185.35112882 118.24601649 192.21521255 129.7425415 199.04101562 141.26635742 C199.83459169 142.60598294 200.6282111 143.94558277 201.421875 145.28515625 C201.80980225 145.9399144 202.19772949 146.59467255 202.59741211 147.26927185 C206.94227699 154.59745418 211.33277437 161.89802949 215.72363281 169.19873047 C219.64057591 175.71744642 223.51862893 182.25780393 227.375 188.8125 C232.63163802 197.74268644 237.99659501 206.60491707 243.38873291 215.4536438 C249.58651434 225.62768202 255.68789569 235.85596019 261.7355957 246.11987305 C262.35394287 247.16828369 262.97229004 248.21669434 263.609375 249.296875 C264.14530273 250.20791992 264.68123047 251.11896484 265.23339844 252.05761719 C267.44090043 255.7343466 269.72708892 259.36334227 272 263 C272.33 176.21 272.66 89.42 273 0 C304.35 0 335.7 0 368 0 C368.495 129.195 368.495 129.195 369 261 C378.56912857 245.23908235 388.01897061 229.56413418 397.17578125 213.5859375 C403.27568759 203.01403831 409.68306569 192.62611689 416.04443359 182.21044922 C420.31118208 175.20573728 424.51620998 168.16389114 428.72705078 161.12548828 C429.90793358 159.15372655 431.09179559 157.18380296 432.27734375 155.21484375 C436.50982912 148.18354889 440.70309722 141.12991422 444.875 134.0625 C457.65275882 112.42045862 470.45568824 90.80004608 483.56298828 69.35546875 C488.53443062 61.20656021 493.43763569 53.01540824 498.25160217 44.77244568 C499.33510293 42.95046944 500.4444687 41.14349613 501.58525085 39.35682678 C504.65165045 34.46101708 507.17696923 29.8357652 508.93021584 24.30907059 C511.96206552 14.91038111 516.1102694 5.16284913 525 0 C541.23782992 -5.54470985 560.64269319 -3.01414044 577.51542932 -2.1608097 C584.33548521 -1.82194018 591.15654379 -1.65967611 597.9829514 -1.50970817 C611.99790543 -1.19797907 625.99802342 -0.67213416 640 0 C638.81104198 3.02327576 637.6189969 5.84269701 635.92578125 8.6171875 C635.30703125 9.63329102 635.30703125 9.63329102 634.67578125 10.66992188 C634.22589844 11.39759766 633.77601563 12.12527344 633.3125 12.875 C632.59707031 14.03999023 632.59707031 14.03999023 631.8671875 15.22851562 C627.22916847 22.72841663 622.39225905 30.09563108 617.55224609 37.46606445 C613.28375152 43.98258949 609.15623576 50.56552579 605.1262207 57.23144531 C599.83201546 65.97053011 594.3111136 74.56448237 588.80712891 83.17236328 C585.82385848 87.84032303 582.84925301 92.51379129 579.875 97.1875 C579.29403564 98.10023682 578.71307129 99.01297363 578.11450195 99.95336914 C572.879758 108.18128458 567.67015738 116.42493752 562.46777344 124.67333984 C559.47901427 129.41101032 556.48671078 134.14644325 553.49511719 138.88232422 C551.01905673 142.80235106 548.5437665 146.72285919 546.0703125 150.64453125 C540.14046007 160.04397818 534.186155 169.4274846 528.21582031 178.80126953 C522.94553363 187.0787882 517.70266097 195.37340293 512.46777344 203.67333984 C509.47901427 208.41101032 506.48671078 213.14644325 503.49511719 217.88232422 C501.01905673 221.80235106 498.5437665 225.72285919 496.0703125 229.64453125 C490.73116717 238.10764459 485.37550469 246.55992773 480 255 C470.90875287 269.2769585 461.81887575 283.5526065 453 298 C456.88831141 303.91406725 460.89681618 309.71590387 465.0625 315.4375 C466.20834493 317.01822076 467.35417792 318.59895017 468.5 320.1796875 C469.37011719 321.37803223 469.37011719 321.37803223 470.2578125 322.60058594 C477.72958315 332.89102343 485.16572907 343.20311842 492.48071289 353.60571289 C496.11460686 358.76590195 499.79678074 363.88938149 503.5 369 C507.70685924 374.8056656 511.87595272 380.63521719 516 386.5 C522.25432876 395.39076572 528.6211553 404.19833001 535 413 C541.88264459 422.49682413 548.7342194 432.0115651 555.48071289 441.60571289 C559.11460686 446.76590195 562.79678074 451.88938149 566.5 457 C570.70685924 462.8056656 574.87595272 468.63521719 579 474.5 C585.25432876 483.39076572 591.6211553 492.19833001 598 501 C604.88109927 510.49469187 611.73060699 520.00764989 618.47631836 529.59912109 C622.69860762 535.59406361 626.98501315 541.54121227 631.28515625 547.48046875 C634.94255436 552.53241434 638.57747735 557.59956922 642.19628906 562.67919922 C645.56744302 567.40611397 648.97015949 572.1098144 652.375 576.8125 C657.12538944 583.37626995 661.81950981 589.97690434 666.47998047 596.60473633 C670.11418152 601.76520646 673.79654188 606.88905185 677.5 612 C681.70685924 617.8056656 685.87595272 623.63521719 690 629.5 C696.25432876 638.39076572 702.6211553 647.19833001 709 656 C715.87832936 665.49086989 722.72778202 674.99820655 729.4675293 684.58813477 C733.74078901 690.65880391 738.08548369 696.67643885 742.4609375 702.67382812 C745.11258008 706.32321887 747.69302735 710.00498442 750.18798828 713.76367188 C750.71772247 714.56091675 751.24745667 715.35816162 751.79324341 716.17956543 C752.19147308 716.78030884 752.58970276 717.38105225 753 718 C736.31899557 718.28065282 719.63875974 718.49208772 702.95596313 718.62174606 C695.20925864 718.68355702 687.46402308 718.76777748 679.71826172 718.90527344 C672.96481743 719.02509723 666.21243692 719.10234683 659.45795918 719.12906194 C655.88267075 719.14467468 652.31042463 719.18119324 648.7361145 719.26876068 C644.73938754 719.36587749 640.74790351 719.36786743 636.75 719.36230469 C635.57251694 719.405448 634.39503387 719.44859131 633.18186951 719.49304199 C629.73466147 719.44117785 627.2161665 719.25643174 624 718 C620.57365531 714.36742866 618.33913352 710.38330655 616 706 C614.92995289 704.40441918 613.84073757 702.82121318 612.71875 701.26171875 C612.19539062 700.51664063 611.67203125 699.7715625 611.1328125 699.00390625 C610.59398437 698.23949219 610.05515625 697.47507812 609.5 696.6875 C608.28092637 694.95205021 607.06219003 693.21636344 605.84375 691.48046875 C605.21597656 690.58634277 604.58820312 689.6922168 603.94140625 688.77099609 C600.61480941 684.02289825 597.30800981 679.26105711 594 674.5 C589.01265433 667.32441457 584.01508381 660.15622689 579 653 C573.30146203 644.86852459 567.628116 636.71976075 561.9609375 628.56640625 C557.65218771 622.36945915 553.33162696 616.18097455 549 610 C543.30146203 601.86852459 537.628116 593.71976075 531.9609375 585.56640625 C527.65218771 579.36945915 523.33162696 573.18097455 519 567 C513.30146203 558.86852459 507.628116 550.71976075 501.9609375 542.56640625 C497.65218758 536.36945898 493.33158459 530.18100437 489 524 C480.62162091 512.04298219 472.2917549 500.0523 463.95898438 488.06347656 C456.41911966 477.21633658 448.86987622 466.37608728 441.28857422 455.55786133 C436.84532159 449.21475684 432.42022354 442.85916895 428 436.5 C422.88300242 429.14023064 417.76171543 421.78352506 412.625 414.4375 C412.05507324 413.62168457 411.48514648 412.80586914 410.89794922 411.96533203 C408.25961501 408.19617357 405.6057294 404.440507 402.90625 400.71484375 C402.43364746 400.06136963 401.96104492 399.40789551 401.47412109 398.73461914 C400.60121063 397.53140542 399.72419277 396.33115631 398.84228516 395.13452148 C396 391.21957316 396 391.21957316 396 389 C395.34 389 394.68 389 394 389 C393.67515625 389.96486328 393.67515625 389.96486328 393.34375 390.94921875 C391.47946089 395.18180536 389.00150342 398.93074786 386.5 402.8125 C384.98052125 405.1877067 383.46669175 407.56228412 381.99239922 409.96590424 C380 413 380 413 377.51078987 416.04477692 C368.08785388 428.11347733 368.57754965 440.50481074 368.7548008 455.28997397 C368.78600827 458.8249433 368.75871714 462.35956123 368.7389679 465.89454651 C368.71265385 472.00113104 368.72240205 478.10677382 368.75750351 484.21330261 C368.80819809 493.04183591 368.80317163 501.86966713 368.78507616 510.69829565 C368.75719876 525.02607113 368.77362423 539.35343296 368.81835938 553.68115234 C368.86168793 567.58908256 368.88387247 581.49678496 368.87792969 595.40478516 C368.87756993 596.2638233 368.87721017 597.12286145 368.8768395 598.00793105 C368.87490505 602.31799772 368.87255817 606.62806404 368.87000632 610.93813038 C368.84940935 646.62570281 368.90914318 682.31250314 369 718 C336.66 718 304.32 718 271 718 C271.02731201 709.33959473 271.05462402 700.67918945 271.08276367 691.75634766 C271.16253563 663.9937058 271.18797152 636.2312494 271.17953635 608.46849982 C271.17827396 604.1505494 271.17749001 599.83259901 271.17700195 595.51464844 C271.17684415 594.22529932 271.17684415 594.22529932 271.17668317 592.90990274 C271.17612238 579.02210545 271.21425201 565.1346734 271.26687535 551.24698742 C271.32007019 536.97925385 271.33123416 522.71192572 271.3040064 508.44411695 C271.28853318 499.65155674 271.30519514 490.8602964 271.36398569 482.06791399 C271.40123981 476.02497623 271.39738333 469.98290183 271.36234536 463.93995513 C271.34335527 460.46149833 271.3413868 456.98543372 271.38863564 453.50719261 C271.5678763 437.3052419 270.48711817 425.71484723 260.30987132 412.70425487 C258.44850409 410.28245655 256.87293188 407.70408232 255.28515625 405.09765625 C254.21255369 403.41823752 253.13835462 401.73983729 252.0625 400.0625 C250.86560333 398.18898227 249.66899372 396.31528112 248.47265625 394.44140625 C247.88887207 393.52762207 247.30508789 392.61383789 246.70361328 391.67236328 C244.12237874 387.6233244 241.5605371 383.56214748 239 379.5 C234.68367514 372.65577905 230.34721469 365.82464048 226 359 C220.13362387 349.78954872 214.29326967 340.56300972 208.46777344 331.32666016 C205.98016644 327.38339757 203.48996615 323.44177316 201 319.5 C198.02219129 314.78594137 195.04484165 310.07159764 192.0703125 305.35546875 C186.73116745 296.89235585 181.37559801 288.44001252 176 280 C170.13367474 270.78951614 164.29326982 261.56300997 158.46777344 252.32666016 C155.98016644 248.38339757 153.48996615 244.44177316 151 240.5 C148.02219129 235.78594137 145.04484165 231.07159764 142.0703125 226.35546875 C136.73116745 217.89235585 131.37559801 209.44001252 126 201 C120.13367474 191.78951614 114.29326982 182.56300997 108.46777344 173.32666016 C105.98016644 169.38339757 103.48996615 165.44177316 101 161.5 C98.02219129 156.78594137 95.04484165 152.07159764 92.0703125 147.35546875 C86.73116745 138.89235585 81.37559801 130.44001252 76 122 C70.13367474 112.78951614 64.29326982 103.56300997 58.46777344 94.32666016 C55.98016644 90.38339757 53.48996615 86.44177316 51 82.5 C48.02219129 77.78594137 45.04484165 73.07159764 42.0703125 68.35546875 C36.14414729 58.96186645 30.19393108 49.58394633 24.22680664 40.21630859 C19.82536399 33.30402495 15.43986359 26.38184772 11.07324219 19.44750977 C8.96564419 16.10207611 6.8531065 12.76117851 4.69921875 9.4453125 C4.05597656 8.45273437 3.41273437 7.46015625 2.75 6.4375 C2.20859375 5.61121094 1.6671875 4.78492188 1.109375 3.93359375 C0 2 0 2 0 0 Z " fill="#000000" transform="translate(29,42)"/>
<path d="M0 0 C4.2882359 4.01233837 7.61679406 8.39978855 11 13.1875 C12.15612683 14.80607757 13.31238037 16.42456464 14.46875 18.04296875 C15.05527344 18.86716309 15.64179688 19.69135742 16.24609375 20.54052734 C18.9793907 24.37338278 21.74037832 28.18607959 24.5 32 C25.58214994 33.49861222 26.66418085 34.9973104 27.74609375 36.49609375 C29.92329023 39.51092519 32.10322917 42.52374694 34.28515625 45.53515625 C40.06771005 53.52058768 45.80453318 61.53462482 51.47631836 69.59912109 C55.69860762 75.59406361 59.98501315 81.54121227 64.28515625 87.48046875 C67.94255436 92.53241434 71.57747735 97.59956922 75.19628906 102.67919922 C78.56744302 107.40611397 81.97015949 112.1098144 85.375 116.8125 C90.12538944 123.37626995 94.81950981 129.97690434 99.47998047 136.60473633 C103.11418152 141.76520646 106.79654188 146.88905185 110.5 152 C114.70685924 157.8056656 118.87595272 163.63521719 123 169.5 C129.25432876 178.39076572 135.6211553 187.19833001 142 196 C148.88264459 205.49682413 155.7342194 215.0115651 162.48071289 224.60571289 C166.11460686 229.76590195 169.79678074 234.88938149 173.5 240 C177.70685924 245.8056656 181.87595272 251.63521719 186 257.5 C192.25432876 266.39076572 198.6211553 275.19833001 205 284 C211.88109927 293.49469187 218.73060699 303.00764989 225.47631836 312.59912109 C229.69860762 318.59406361 233.98501315 324.54121227 238.28515625 330.48046875 C241.94255436 335.53241434 245.57747735 340.59956922 249.19628906 345.67919922 C252.56744302 350.40611397 255.97015949 355.1098144 259.375 359.8125 C264.12384308 366.3741333 268.81612596 372.97283032 273.47558594 379.59814453 C277.15478939 384.82183938 280.87915202 390.01141916 284.625 395.1875 C285.16415039 395.93257812 285.70330078 396.67765625 286.25878906 397.4453125 C286.78956055 398.17878906 287.32033203 398.91226562 287.8671875 399.66796875 C290.83698997 403.7723128 293.79890655 407.88218263 296.75 412 C297.16846191 412.58160889 297.58692383 413.16321777 298.01806641 413.76245117 C300.88374276 417.76748551 300.88374276 417.76748551 302 420 C285.31899557 420.28065282 268.63875974 420.49208772 251.95596313 420.62174606 C244.20925864 420.68355702 236.46402308 420.76777748 228.71826172 420.90527344 C221.96481743 421.02509723 215.21243692 421.10234683 208.45795918 421.12906194 C204.88267075 421.14467468 201.31042463 421.18119324 197.7361145 421.26876068 C193.73938754 421.36587749 189.74790351 421.36786743 185.75 421.36230469 C184.57251694 421.405448 183.39503387 421.44859131 182.18186951 421.49304199 C178.73466147 421.44117785 176.2161665 421.25643174 173 420 C169.57365531 416.36742866 167.33913352 412.38330655 165 408 C163.92995289 406.40441918 162.84073757 404.82121318 161.71875 403.26171875 C161.19539062 402.51664063 160.67203125 401.7715625 160.1328125 401.00390625 C159.59398437 400.23949219 159.05515625 399.47507812 158.5 398.6875 C157.28092637 396.95205021 156.06219003 395.21636344 154.84375 393.48046875 C154.21597656 392.58634277 153.58820313 391.6922168 152.94140625 390.77099609 C149.61480941 386.02289825 146.30800981 381.26105711 143 376.5 C138.01265433 369.32441457 133.01508381 362.15622689 128 355 C122.30146203 346.86852459 116.628116 338.71976075 110.9609375 330.56640625 C106.65218771 324.36945915 102.33162696 318.18097455 98 312 C92.30146203 303.86852459 86.628116 295.71976075 80.9609375 287.56640625 C76.65218771 281.36945915 72.33162696 275.18097455 68 269 C62.30146203 260.86852459 56.628116 252.71976075 50.9609375 244.56640625 C46.65218758 238.36945898 42.33158459 232.18100437 38 226 C29.62162091 214.04298219 21.2917549 202.0523 12.95898438 190.06347656 C5.41911966 179.21633658 -2.13012378 168.37608728 -9.71142578 157.55786133 C-14.83430679 150.24453205 -19.93235451 142.9140564 -25.02807617 135.58178711 C-28.85691517 130.07443854 -32.69428936 124.57328616 -36.546875 119.08251953 C-37.70981981 117.42268597 -38.87004808 115.76094525 -40.02734375 114.09716797 C-42.76522101 110.1630612 -45.53298746 106.26124385 -48.38671875 102.41015625 C-49.17598755 101.32335571 -49.17598755 101.32335571 -49.98120117 100.21459961 C-50.9633841 98.86328893 -51.96135271 97.52325216 -52.9777832 96.19750977 C-55.08059389 93.26995931 -56.09383541 91.67189693 -55.5859375 88.03515625 C-53.63456965 84.30064192 -51.47304229 80.80854691 -49.125 77.3125 C-48.12267391 75.79234136 -47.12140903 74.27148258 -46.12109375 72.75 C-45.60401855 71.96625 -45.08694336 71.1825 -44.55419922 70.375 C-42.05145482 66.55051091 -39.619516 62.68220693 -37.1875 58.8125 C-32.81086346 51.86267588 -28.41321018 44.92665804 -24 38 C-19.46673334 30.88282141 -14.94327695 23.75961796 -10.4375 16.625 C-9.96119141 15.87089844 -9.48488281 15.11679687 -8.99414062 14.33984375 C-5.98289399 9.5681101 -2.98656026 4.78722101 0 0 Z " fill="#A2A2A2" transform="translate(480,340)"/>
<path d="M0 0 C31.35 0 62.7 0 95 0 C95.37596756 33.41041715 95.68938447 66.81875334 95.8681106 100.23065467 C95.88936833 104.19023183 95.91137222 108.14980452 95.93383789 112.109375 C95.94052681 113.29161326 95.94052681 113.29161326 95.94735085 114.49773511 C96.02098611 127.19918201 96.15482931 139.8992983 96.31159753 152.59996024 C96.4715283 165.66747561 96.56519725 178.73430245 96.59950441 191.80275607 C96.62058123 199.12891036 96.67098162 206.4522849 96.79741096 213.77744293 C97.76343705 271.39887405 97.76343705 271.39887405 79.96549892 291.68161583 C77.17353071 294.9748534 75.12622669 298.55682037 73.078125 302.33984375 C72.43174072 303.45198242 71.78535645 304.56412109 71.11938477 305.70996094 C70.50248779 306.77504883 69.88559082 307.84013672 69.25 308.9375 C64.1088104 317.76211414 58.91115767 326.54898269 53.5625 335.25 C52.75570801 336.57245728 52.75570801 336.57245728 51.93261719 337.92163086 C51.19446777 339.11284546 51.19446777 339.11284546 50.44140625 340.328125 C50.01545166 341.0180957 49.58949707 341.70806641 49.15063477 342.41894531 C48 344 48 344 46 345 C45.36106812 343.90220215 45.36106812 343.90220215 44.70922852 342.78222656 C35.38680283 326.78102958 25.94327657 310.86431815 16.29296875 295.05859375 C15.36156004 293.48407251 15.36156004 293.48407251 14.41133499 291.87774277 C12.73536558 289.10383221 10.92068938 286.49269707 9.00365829 283.88040543 C-0.88993184 269.84362107 -1.66766999 257.93419841 -1.36230469 241.12792969 C-1.35891209 238.48447023 -1.36030863 235.84140915 -1.36761475 233.19799805 C-1.37385198 227.54892565 -1.33679504 221.90153971 -1.26876068 216.25289154 C-1.17046798 208.08660446 -1.13990668 199.92111751 -1.12490478 191.75430313 C-1.09875948 178.49882789 -1.01922705 165.24424801 -0.90527344 151.98925781 C-0.79481518 139.12732362 -0.71002755 126.26563422 -0.65917969 113.40332031 C-0.65602701 112.60805997 -0.65287432 111.81279962 -0.64962611 110.99344048 C-0.63396358 107.00312359 -0.61879958 103.012805 -0.60388327 99.02248526 C-0.47985129 66.0141962 -0.2588361 33.00757563 0 0 Z " fill="#A2A2A2" transform="translate(302,42)"/>
</svg>
