<svg xmlns="http://www.w3.org/2000/svg" xmlns:xlink="http://www.w3.org/1999/xlink" width="500" zoomAndPan="magnify" viewBox="0 0 375 225" height="300" preserveAspectRatio="xMidYMid meet" version="1.0"><defs><g/></defs><g fill="#000000" fill-opacity="1"><g transform="translate(21.416927, 118.505458)"><g><path d="M 90.859375 10.359375 C 90.515625 10.472656 90.21875 10.554688 89.96875 10.609375 C 89.800781 10.648438 89.664062 10.679688 89.5625 10.703125 C 89.46875 10.734375 89.394531 10.769531 89.34375 10.8125 C 88.882812 11.269531 87.457031 12.628906 85.0625 14.890625 C 82.675781 17.160156 79.832031 20.003906 76.53125 23.421875 C 73.238281 26.847656 70 30.4375 66.8125 34.1875 C 63.625 37.9375 60.992188 41.5 58.921875 44.875 C 56.847656 48.25 55.847656 51.054688 55.921875 53.296875 C 56.003906 55.546875 57.679688 56.816406 60.953125 57.109375 C 62.097656 57.203125 63.253906 57.125 64.421875 56.875 C 66.097656 56.4375 67.734375 55.804688 69.328125 54.984375 C 74.410156 52.378906 78.300781 49.007812 81 44.875 C 83.707031 40.75 85.6875 36.207031 86.9375 31.25 C 88.195312 26.300781 89.207031 21.226562 89.96875 16.03125 C 90.257812 14.132812 90.554688 12.242188 90.859375 10.359375 Z M 94.328125 -23.921875 C 94.078125 -23.347656 93.800781 -22.789062 93.5 -22.25 C 92.832031 -20.894531 92.179688 -19.507812 91.546875 -18.09375 C 87.609375 -9.832031 82.550781 -2.382812 76.375 4.25 C 74.445312 6.3125 72.398438 8.203125 70.234375 9.921875 C 66.203125 13.097656 61.578125 14.582031 56.359375 14.375 C 52.878906 14.175781 50.09375 13.179688 48 11.390625 C 45.90625 9.609375 44.363281 7.34375 43.375 4.59375 C 42.394531 1.851562 41.816406 -1.050781 41.640625 -4.125 C 41.390625 -7.800781 41.359375 -11.78125 41.546875 -16.0625 C 41.742188 -20.34375 42.023438 -24.75 42.390625 -29.28125 C 42.941406 -35.914062 43.269531 -42.304688 43.375 -48.453125 C 43.476562 -54.597656 42.941406 -59.9375 41.765625 -64.46875 C 40.804688 -67.894531 39.304688 -70.238281 37.265625 -71.5 C 35.234375 -72.757812 32.457031 -73.035156 28.9375 -72.328125 C 26.207031 -71.773438 23.5625 -70.9375 21 -69.8125 C 17.976562 -68.46875 14.59375 -66.535156 10.84375 -64.015625 C 7.09375 -61.492188 3.503906 -58.585938 0.078125 -55.296875 C -3.335938 -52.003906 -6.113281 -48.476562 -8.25 -44.71875 C -10.394531 -40.96875 -11.414062 -37.148438 -11.3125 -33.265625 C -11.207031 -29.390625 -9.472656 -25.671875 -6.109375 -22.109375 C -3.046875 -18.835938 0.390625 -16.289062 4.203125 -14.46875 C 8.015625 -12.644531 12.207031 -11.734375 16.78125 -11.734375 C 16.914062 -11.734375 17.066406 -11.734375 17.234375 -11.734375 C 17.828125 -11.804688 18.390625 -11.789062 18.921875 -11.6875 C 19.460938 -11.582031 19.90625 -11.195312 20.25 -10.53125 C 20.457031 -10.070312 20.242188 -9.644531 19.609375 -9.25 C 18.984375 -8.851562 18.109375 -8.609375 16.984375 -8.515625 C 13.921875 -8.210938 10.878906 -8.441406 7.859375 -9.203125 C 1.359375 -10.890625 -4.375 -13.976562 -9.34375 -18.46875 C -13.269531 -22.195312 -15.675781 -26.035156 -16.5625 -29.984375 C -17.445312 -33.929688 -17.15625 -37.851562 -15.6875 -41.75 C -14.21875 -45.65625 -11.953125 -49.410156 -8.890625 -53.015625 C -5.828125 -56.617188 -2.332031 -59.914062 1.59375 -62.90625 C 5.519531 -65.90625 9.507812 -68.472656 13.5625 -70.609375 C 17.613281 -72.753906 21.351562 -74.3125 24.78125 -75.28125 C 28.507812 -76.28125 32.285156 -76.550781 36.109375 -76.09375 C 41.804688 -75.550781 45.628906 -72.597656 47.578125 -67.234375 C 48.648438 -64.171875 49.320312 -60.53125 49.59375 -56.3125 C 49.875 -52.09375 49.882812 -47.5625 49.625 -42.71875 C 49.375 -37.875 49.066406 -33.039062 48.703125 -28.21875 C 48.410156 -24.488281 48.175781 -20.9375 48 -17.5625 C 47.832031 -14.1875 47.769531 -11.144531 47.8125 -8.4375 C 47.863281 -6.675781 48.066406 -4.597656 48.421875 -2.203125 C 48.773438 0.179688 49.390625 2.457031 50.265625 4.625 C 51.148438 6.800781 52.410156 8.4375 54.046875 9.53125 C 55.679688 10.632812 57.800781 10.785156 60.40625 9.984375 C 61.875 9.484375 63.238281 8.789062 64.5 7.90625 C 65.757812 7.03125 66.945312 6.066406 68.0625 5.015625 C 73.644531 -0.429688 78.347656 -6.554688 82.171875 -13.359375 C 84.441406 -17.429688 86.492188 -21.617188 88.328125 -25.921875 C 90.171875 -30.222656 91.894531 -34.554688 93.5 -38.921875 C 93.800781 -39.796875 94.132812 -40.65625 94.5 -41.5 C 95 -42.957031 95.523438 -44.441406 96.078125 -45.953125 C 96.785156 -47.804688 98.113281 -48.710938 100.0625 -48.671875 C 102.03125 -48.628906 103.09375 -47.644531 103.25 -45.71875 C 103.34375 -41.800781 103.160156 -37.878906 102.703125 -33.953125 C 102.054688 -27.609375 101.40625 -21.269531 100.75 -14.9375 C 100.445312 -11.957031 100.125 -9.003906 99.78125 -6.078125 C 99.78125 -5.828125 99.800781 -5.601562 99.84375 -5.40625 C 99.894531 -5.207031 100.046875 -5.085938 100.296875 -5.046875 C 100.453125 -4.972656 100.640625 -4.976562 100.859375 -5.0625 C 101.078125 -5.144531 101.265625 -5.234375 101.421875 -5.328125 C 105.046875 -7.835938 108.675781 -10.328125 112.3125 -12.796875 C 113.613281 -13.710938 115.609375 -14.875 118.296875 -16.28125 C 120.984375 -17.6875 122.832031 -17.96875 123.84375 -17.125 C 124.050781 -16.507812 123.925781 -15.972656 123.46875 -15.515625 C 121.863281 -13.960938 120.132812 -12.578125 118.28125 -11.359375 C 117.914062 -11.109375 117.582031 -10.859375 117.28125 -10.609375 C 115.613281 -9.503906 113.976562 -8.367188 112.375 -7.203125 C 109.3125 -5.097656 106.269531 -2.960938 103.25 -0.796875 C 101.738281 0.265625 100.640625 1.117188 99.953125 1.765625 C 99.265625 2.421875 98.78125 3.1875 98.5 4.0625 C 98.226562 4.945312 97.992188 6.25 97.796875 7.96875 C 97.742188 8.101562 97.71875 8.226562 97.71875 8.34375 C 97.625 8.894531 97.519531 9.46875 97.40625 10.0625 C 96.726562 15.34375 95.800781 20.6875 94.625 26.09375 C 93.457031 31.507812 91.78125 36.597656 89.59375 41.359375 C 87.414062 46.117188 84.398438 50.175781 80.546875 53.53125 C 76.691406 56.882812 71.648438 59.164062 65.421875 60.375 C 62.191406 60.96875 59.007812 60.785156 55.875 59.828125 C 52.3125 58.617188 50.414062 56.617188 50.1875 53.828125 C 49.957031 51.035156 50.898438 47.75 53.015625 43.96875 C 55.128906 40.195312 57.925781 36.257812 61.40625 32.15625 C 64.882812 28.0625 68.519531 24.097656 72.3125 20.265625 C 76.113281 16.429688 79.585938 13.09375 82.734375 10.25 C 85.878906 7.414062 88.207031 5.335938 89.71875 4.015625 C 90.570312 3.265625 91.265625 2.460938 91.796875 1.609375 C 92.335938 0.765625 92.65625 -0.257812 92.75 -1.46875 C 93.207031 -5.957031 93.707031 -10.46875 94.25 -15 C 94.507812 -17.175781 94.765625 -19.335938 95.015625 -21.484375 C 95.054688 -21.992188 95.054688 -22.5 95.015625 -23 C 95.015625 -23.207031 95.015625 -23.4375 95.015625 -23.6875 C 94.804688 -23.78125 94.578125 -23.859375 94.328125 -23.921875 Z M 94.328125 -23.921875 "/></g></g></g><g fill="#000000" fill-opacity="1"><g transform="translate(140.510206, 118.505458)"><g><path d="M 43.046875 -17.328125 C 43.335938 -17.285156 43.546875 -17.1875 43.671875 -17.03125 C 43.796875 -16.882812 43.882812 -16.664062 43.9375 -16.375 C 43.9375 -15.613281 43.242188 -14.738281 41.859375 -13.75 C 40.472656 -12.769531 38.960938 -11.863281 37.328125 -11.03125 C 35.691406 -10.195312 34.53125 -9.675781 33.84375 -9.46875 C 31.507812 -8.582031 29.226562 -8.273438 27 -8.546875 C 24.769531 -8.816406 22.816406 -9.984375 21.140625 -12.046875 C 20.085938 -13.515625 19.296875 -14.179688 18.765625 -14.046875 C 18.242188 -13.921875 17.609375 -13.273438 16.859375 -12.109375 C 16.035156 -10.804688 14.695312 -9.253906 12.84375 -7.453125 C 10.726562 -5.890625 8.75 -5.160156 6.90625 -5.265625 C 5.070312 -5.367188 3.523438 -6.082031 2.265625 -7.40625 C 1.003906 -8.738281 0.1875 -10.453125 -0.1875 -12.546875 C -0.5625 -14.640625 -0.347656 -16.863281 0.453125 -19.21875 C 1.109375 -21.09375 2.488281 -21.875 4.59375 -21.5625 C 5.144531 -21.46875 5.585938 -21.226562 5.921875 -20.84375 C 6.253906 -20.46875 6.335938 -20.007812 6.171875 -19.46875 C 5.742188 -17.582031 5.570312 -15.710938 5.65625 -13.859375 C 5.613281 -12.648438 5.84375 -11.519531 6.34375 -10.46875 C 6.851562 -9.550781 7.546875 -9.394531 8.421875 -10 C 9.304688 -10.613281 10.1875 -11.492188 11.0625 -12.640625 C 11.945312 -13.796875 12.640625 -14.753906 13.140625 -15.515625 C 13.234375 -15.722656 13.335938 -15.90625 13.453125 -16.0625 C 13.640625 -16.3125 13.832031 -16.585938 14.03125 -16.890625 C 14.65625 -17.847656 15.3125 -18.75 16 -19.59375 C 17.207031 -21.019531 18.75 -21.628906 20.625 -21.421875 C 22.226562 -21.328125 23.363281 -20.523438 24.03125 -19.015625 C 25.332031 -15.671875 27.253906 -13.835938 29.796875 -13.515625 C 32.335938 -13.203125 35.09375 -13.992188 38.0625 -15.890625 C 38.820312 -16.460938 39.597656 -16.894531 40.390625 -17.1875 C 41.191406 -17.488281 42.078125 -17.535156 43.046875 -17.328125 Z M 43.046875 -17.328125 "/></g></g></g><g fill="#000000" fill-opacity="1"><g transform="translate(179.670273, 118.505458)"><g><path d="M 29.140625 -16.515625 C 30.148438 -17.472656 30.988281 -17.660156 31.65625 -17.078125 C 32.332031 -16.492188 32.328125 -15.398438 31.640625 -13.796875 C 30.066406 -10.734375 28.050781 -7.863281 25.59375 -5.1875 C 23.132812 -2.507812 20.335938 -0.539062 17.203125 0.71875 C 15.847656 1.15625 14.476562 1.375 13.09375 1.375 C 11.707031 1.375 10.34375 1.203125 9 0.859375 C 7.664062 0.554688 6.554688 -0.0078125 5.671875 -0.84375 C 4.796875 -1.675781 4.035156 -2.640625 3.390625 -3.734375 C 1.472656 -7.378906 0.253906 -12.609375 -0.265625 -19.421875 C -0.796875 -26.242188 -0.847656 -33.691406 -0.421875 -41.765625 C -0.00390625 -49.847656 0.660156 -57.585938 1.578125 -64.984375 C 2.492188 -72.390625 3.421875 -78.507812 4.359375 -83.34375 C 4.816406 -85.351562 5.503906 -87.265625 6.421875 -89.078125 C 7.421875 -90.953125 8.976562 -91.804688 11.09375 -91.640625 C 13.050781 -91.640625 14.410156 -90.710938 15.171875 -88.859375 C 15.972656 -86.484375 16.429688 -84.0625 16.546875 -81.59375 C 16.929688 -75.757812 16.769531 -69.945312 16.0625 -64.15625 C 15.375 -58.570312 14.5 -53.347656 13.4375 -48.484375 C 12.375 -43.617188 11.269531 -38.851562 10.125 -34.1875 C 8.65625 -28.488281 7.269531 -22.515625 5.96875 -16.265625 C 6.019531 -15.628906 6.085938 -15.054688 6.171875 -14.546875 C 6.335938 -12.785156 6.578125 -11.265625 6.890625 -9.984375 C 7.210938 -8.703125 7.914062 -7.125 9 -5.25 C 10 -3.488281 11.265625 -2.554688 12.796875 -2.453125 C 14.335938 -2.347656 15.910156 -2.773438 17.515625 -3.734375 C 19.128906 -4.703125 20.613281 -5.851562 21.96875 -7.1875 C 23.320312 -8.53125 24.375 -9.75 25.125 -10.84375 C 25.332031 -11.144531 25.710938 -11.703125 26.265625 -12.515625 C 26.828125 -13.328125 27.382812 -14.117188 27.9375 -14.890625 C 28.488281 -15.671875 28.890625 -16.210938 29.140625 -16.515625 Z M 5.28125 -34.703125 C 5.925781 -36.367188 6.578125 -39.050781 7.234375 -42.75 C 7.898438 -46.445312 8.492188 -50.5625 9.015625 -55.09375 C 9.546875 -59.625 9.945312 -63.941406 10.21875 -68.046875 C 10.5 -72.148438 10.597656 -75.429688 10.515625 -77.890625 C 10.441406 -80.359375 10.128906 -81.394531 9.578125 -81 C 8.773438 -77.519531 8.25 -74.296875 8 -71.328125 C 7.832031 -69.773438 7.601562 -67.460938 7.3125 -64.390625 C 6.71875 -59.054688 6.164062 -53.378906 5.65625 -47.359375 C 5.15625 -41.347656 5.03125 -37.128906 5.28125 -34.703125 Z M 5.28125 -34.703125 "/></g></g></g><g fill="#000000" fill-opacity="1"><g transform="translate(208.328167, 118.505458)"><g><path d="M 24.984375 -17.203125 C 25.285156 -17.035156 25.421875 -16.765625 25.390625 -16.390625 C 25.367188 -16.015625 25.257812 -15.675781 25.0625 -15.375 C 23.5 -13.0625 21.828125 -11.015625 20.046875 -9.234375 C 18.265625 -7.453125 16.300781 -6.117188 14.15625 -5.234375 C 12.019531 -4.347656 9.566406 -4.101562 6.796875 -4.5 C 4.941406 -4.789062 3.546875 -5.414062 2.609375 -6.375 C 1.671875 -7.34375 0.972656 -8.707031 0.515625 -10.46875 C -0.242188 -13.238281 -0.414062 -16.085938 0 -19.015625 C 0.34375 -20.710938 1.394531 -21.59375 3.15625 -21.65625 C 4.738281 -21.65625 5.597656 -20.945312 5.734375 -19.53125 C 5.773438 -18.363281 5.773438 -17.207031 5.734375 -16.0625 C 5.734375 -15.90625 5.734375 -15.757812 5.734375 -15.625 C 5.640625 -12.488281 6.144531 -10.34375 7.25 -9.1875 C 8.363281 -8.03125 9.8125 -7.722656 11.59375 -8.265625 C 13.382812 -8.816406 15.285156 -10.078125 17.296875 -12.046875 C 17.546875 -12.296875 17.859375 -12.640625 18.234375 -13.078125 C 18.617188 -13.515625 19.039062 -13.945312 19.5 -14.375 C 20.132812 -15.039062 20.660156 -15.601562 21.078125 -16.0625 C 22.335938 -17.320312 23.640625 -17.703125 24.984375 -17.203125 Z M 2.71875 -26.703125 C 1.320312 -26.796875 0.519531 -27.550781 0.3125 -28.96875 C 0.144531 -30.070312 0.316406 -31.125 0.828125 -32.125 C 1.285156 -33 2.023438 -33.59375 3.046875 -33.90625 C 4.078125 -34.226562 5.050781 -34.140625 5.96875 -33.640625 C 6.3125 -33.453125 6.554688 -33.191406 6.703125 -32.859375 C 6.859375 -32.535156 6.910156 -32.269531 6.859375 -32.0625 C 6.816406 -28.445312 5.4375 -26.660156 2.71875 -26.703125 Z M 2.71875 -26.703125 "/></g></g></g><g fill="#000000" fill-opacity="1"><g transform="translate(229.366824, 118.505458)"><g><path d="M 31.4375 -17.265625 C 31.6875 -17.222656 31.859375 -17.148438 31.953125 -17.046875 C 32.046875 -16.941406 32.148438 -16.738281 32.265625 -16.4375 C 32.359375 -16.144531 32.253906 -15.789062 31.953125 -15.375 C 31.660156 -14.96875 31.382812 -14.632812 31.125 -14.375 C 29.25 -12.613281 27.054688 -11.5625 24.546875 -11.21875 C 23.097656 -11.019531 21.65625 -10.96875 20.21875 -11.0625 C 18.78125 -11.164062 17.363281 -11.515625 15.96875 -12.109375 C 14.957031 -12.617188 14.015625 -12.472656 13.140625 -11.671875 C 11.335938 -10.023438 9.453125 -8.445312 7.484375 -6.9375 C 6.472656 -6.175781 5.410156 -5.546875 4.296875 -5.046875 C 3.191406 -4.546875 1.988281 -4.257812 0.6875 -4.1875 C -3.132812 -4.257812 -4.644531 -6.125 -3.84375 -9.78125 C -3.800781 -9.9375 -3.742188 -10.0625 -3.671875 -10.15625 C -2.578125 -13.132812 -1.128906 -15.816406 0.671875 -18.203125 C 2.484375 -20.597656 4.773438 -22.597656 7.546875 -24.203125 C 9.378906 -25.273438 11.347656 -25.6875 13.453125 -25.4375 C 14.003906 -25.320312 14.53125 -25.113281 15.03125 -24.8125 C 15.65625 -24.519531 15.910156 -24.039062 15.796875 -23.375 C 15.742188 -23.164062 15.644531 -22.988281 15.5 -22.84375 C 15.351562 -22.695312 15.195312 -22.550781 15.03125 -22.40625 C 14.9375 -22.300781 14.816406 -22.222656 14.671875 -22.171875 C 14.523438 -22.128906 14.367188 -22.109375 14.203125 -22.109375 C 12.691406 -22.054688 11.394531 -21.613281 10.3125 -20.78125 C 9.226562 -19.945312 8.238281 -19.003906 7.34375 -17.953125 C 6.332031 -16.828125 5.398438 -15.585938 4.546875 -14.234375 C 3.691406 -12.890625 2.988281 -11.28125 2.4375 -9.40625 C 4.445312 -10.570312 6.023438 -11.726562 7.171875 -12.875 C 7.421875 -13.125 7.671875 -13.351562 7.921875 -13.5625 C 8.128906 -13.757812 8.335938 -13.941406 8.546875 -14.109375 C 9.554688 -15.046875 10.609375 -15.867188 11.703125 -16.578125 C 12.960938 -17.285156 14.207031 -17.640625 15.4375 -17.640625 C 16.675781 -17.640625 17.878906 -17.132812 19.046875 -16.125 C 20.648438 -14.707031 22.207031 -14.15625 23.71875 -14.46875 C 25.226562 -14.78125 26.632812 -15.3125 27.9375 -16.0625 C 29.269531 -16.863281 30.4375 -17.265625 31.4375 -17.265625 Z M 31.4375 -17.265625 "/></g></g></g><g fill="#000000" fill-opacity="1"><g transform="translate(258.436556, 118.505458)"><g><path d="M 6.5625 -8.140625 C 8.4375 -8.140625 9.097656 -7.234375 8.546875 -5.421875 C 8.296875 -4.710938 8.007812 -4.050781 7.6875 -3.4375 C 7.394531 -2.882812 6.972656 -2.519531 6.421875 -2.34375 C 5.867188 -2.175781 5.285156 -2.21875 4.671875 -2.46875 C 4.160156 -2.675781 3.882812 -3.03125 3.84375 -3.53125 C 3.800781 -4.332031 3.820312 -5.15625 3.90625 -6 C 4.070312 -7.507812 4.957031 -8.222656 6.5625 -8.140625 Z M 6.5625 -8.140625 "/></g></g></g><g fill="#000000" fill-opacity="1"><g transform="translate(127.251469, 162.827274)"><g><path d="M 0.578125 5.328125 C 0.578125 4.878906 0.796875 4.617188 1.234375 4.546875 L 3.546875 4.09375 L 3.546875 -17.90625 C 2.273438 -18.132812 1.503906 -18.296875 1.234375 -18.390625 C 0.796875 -18.472656 0.578125 -18.734375 0.578125 -19.171875 L 0.578125 -20.921875 L 5.796875 -20.921875 C 6.296875 -20.921875 6.625 -20.671875 6.78125 -20.171875 L 7.0625 -17.703125 L 7.109375 -17.703125 C 9.097656 -20.128906 11.4375 -21.34375 14.125 -21.34375 C 16.582031 -21.34375 18.515625 -20.429688 19.921875 -18.609375 C 21.359375 -16.671875 22.078125 -13.992188 22.078125 -10.578125 C 22.078125 -7.441406 21.28125 -4.863281 19.6875 -2.84375 C 18 -0.757812 15.867188 0.28125 13.296875 0.28125 C 10.734375 0.28125 8.722656 -0.523438 7.265625 -2.140625 L 7.265625 4.0625 C 7.316406 4.0625 7.691406 4.140625 8.390625 4.296875 C 9.109375 4.460938 9.507812 4.546875 9.59375 4.546875 C 10.03125 4.640625 10.25 4.898438 10.25 5.328125 L 10.25 7.109375 L 0.578125 7.109375 Z M 7.265625 -5.046875 C 8.503906 -3.390625 10.109375 -2.5625 12.078125 -2.5625 C 14.117188 -2.5625 15.65625 -3.25 16.6875 -4.625 C 17.738281 -6.007812 18.265625 -7.992188 18.265625 -10.578125 C 18.265625 -15.753906 16.476562 -18.34375 12.90625 -18.34375 C 10.738281 -18.34375 8.859375 -17.289062 7.265625 -15.1875 Z M 7.265625 -5.046875 "/></g></g></g><g fill="#000000" fill-opacity="1"><g transform="translate(150.218192, 162.827274)"><g><path d="M 0.984375 -28.6875 L 0.984375 -30.421875 L 8.09375 -30.421875 L 8.09375 -18.109375 C 10.113281 -20.203125 12.347656 -21.25 14.796875 -21.25 C 17.046875 -21.25 18.78125 -20.53125 20 -19.09375 C 21.21875 -17.65625 21.828125 -15.722656 21.828125 -13.296875 L 21.828125 -3.03125 C 23.066406 -2.800781 23.851562 -2.628906 24.1875 -2.515625 C 24.601562 -2.441406 24.8125 -2.179688 24.8125 -1.734375 L 24.8125 0 L 18.15625 0 L 18.15625 -13.296875 C 18.15625 -16.640625 16.679688 -18.3125 13.734375 -18.3125 C 11.722656 -18.3125 9.84375 -17.332031 8.09375 -15.375 L 8.09375 -2.96875 L 8.59375 -2.890625 C 9.582031 -2.703125 10.191406 -2.578125 10.421875 -2.515625 C 10.859375 -2.421875 11.078125 -2.160156 11.078125 -1.734375 L 11.078125 0 L 1.40625 0 L 1.40625 -1.734375 C 1.40625 -2.179688 1.625 -2.441406 2.0625 -2.515625 L 4.375 -2.96875 L 4.375 -27.421875 C 2.800781 -27.660156 1.894531 -27.820312 1.65625 -27.90625 C 1.207031 -28 0.984375 -28.257812 0.984375 -28.6875 Z M 0.984375 -28.6875 "/></g></g></g><g fill="#000000" fill-opacity="1"><g transform="translate(176.05071, 162.827274)"><g><path d="M 1.578125 -6.03125 C 1.128906 -7.207031 0.90625 -8.695312 0.90625 -10.5 C 0.90625 -12.300781 1.128906 -13.785156 1.578125 -14.953125 C 2.109375 -16.367188 2.78125 -17.5 3.59375 -18.34375 C 4.476562 -19.28125 5.539062 -20.003906 6.78125 -20.515625 C 7.988281 -21.003906 9.367188 -21.25 10.921875 -21.25 C 12.453125 -21.25 13.828125 -21.003906 15.046875 -20.515625 C 16.273438 -20.003906 17.335938 -19.28125 18.234375 -18.34375 C 19.066406 -17.46875 19.722656 -16.335938 20.203125 -14.953125 C 20.679688 -13.609375 20.921875 -12.125 20.921875 -10.5 C 20.921875 -8.875 20.679688 -7.382812 20.203125 -6.03125 C 19.722656 -4.644531 19.066406 -3.515625 18.234375 -2.640625 C 17.359375 -1.722656 16.296875 -1.007812 15.046875 -0.5 C 13.828125 0 12.453125 0.25 10.921875 0.25 C 9.367188 0.25 7.988281 0 6.78125 -0.5 C 5.53125 -1.007812 4.46875 -1.722656 3.59375 -2.640625 C 2.78125 -3.492188 2.109375 -4.625 1.578125 -6.03125 Z M 4.703125 -10.421875 C 4.703125 -9.367188 4.84375 -8.265625 5.125 -7.109375 C 5.351562 -6.148438 5.738281 -5.320312 6.28125 -4.625 C 6.757812 -3.988281 7.398438 -3.5 8.203125 -3.15625 C 9.097656 -2.757812 10.003906 -2.5625 10.921875 -2.5625 C 13.046875 -2.5625 14.585938 -3.25 15.546875 -4.625 C 16.566406 -6.09375 17.078125 -8.035156 17.078125 -10.453125 C 17.078125 -12.878906 16.566406 -14.828125 15.546875 -16.296875 C 14.585938 -17.660156 13.046875 -18.34375 10.921875 -18.34375 C 9.859375 -18.34375 8.953125 -18.179688 8.203125 -17.859375 C 7.484375 -17.554688 6.84375 -17.035156 6.28125 -16.296875 C 5.738281 -15.585938 5.351562 -14.757812 5.125 -13.8125 C 4.84375 -12.65625 4.703125 -11.523438 4.703125 -10.421875 Z M 4.703125 -10.421875 "/></g></g></g><g fill="#000000" fill-opacity="1"><g transform="translate(197.867085, 162.827274)"><g><path d="M 0.546875 -18.65625 L 0.546875 -20.09375 L 3.984375 -20.546875 L 4.796875 -27.03125 C 4.796875 -27.25 4.878906 -27.414062 5.046875 -27.53125 C 5.191406 -27.644531 5.382812 -27.703125 5.625 -27.703125 L 7.484375 -27.703125 L 7.484375 -20.515625 L 13.484375 -20.515625 L 13.484375 -17.828125 L 7.484375 -17.828125 L 7.484375 -5.25 C 7.484375 -4.332031 7.6875 -3.671875 8.09375 -3.265625 C 8.507812 -2.847656 9.078125 -2.640625 9.796875 -2.640625 C 10.117188 -2.640625 10.46875 -2.695312 10.84375 -2.8125 C 11.039062 -2.863281 11.28125 -2.976562 11.5625 -3.15625 C 11.613281 -3.175781 11.695312 -3.226562 11.8125 -3.3125 C 11.925781 -3.394531 12.015625 -3.445312 12.078125 -3.46875 C 12.285156 -3.582031 12.414062 -3.640625 12.46875 -3.640625 C 12.664062 -3.640625 12.835938 -3.53125 12.984375 -3.3125 L 14.046875 -1.578125 C 13.296875 -0.910156 12.53125 -0.4375 11.75 -0.15625 C 10.832031 0.164062 9.90625 0.328125 8.96875 0.328125 C 7.363281 0.328125 6.097656 -0.132812 5.171875 -1.0625 C 4.273438 -1.957031 3.828125 -3.285156 3.828125 -5.046875 L 3.828125 -17.859375 L 1.328125 -17.859375 C 1.085938 -17.859375 0.894531 -17.914062 0.75 -18.03125 C 0.613281 -18.125 0.546875 -18.332031 0.546875 -18.65625 Z M 0.546875 -18.65625 "/></g></g></g><g fill="#000000" fill-opacity="1"><g transform="translate(212.86206, 162.827274)"><g><path d="M 1.578125 -6.03125 C 1.128906 -7.207031 0.90625 -8.695312 0.90625 -10.5 C 0.90625 -12.300781 1.128906 -13.785156 1.578125 -14.953125 C 2.109375 -16.367188 2.78125 -17.5 3.59375 -18.34375 C 4.476562 -19.28125 5.539062 -20.003906 6.78125 -20.515625 C 7.988281 -21.003906 9.367188 -21.25 10.921875 -21.25 C 12.453125 -21.25 13.828125 -21.003906 15.046875 -20.515625 C 16.273438 -20.003906 17.335938 -19.28125 18.234375 -18.34375 C 19.066406 -17.46875 19.722656 -16.335938 20.203125 -14.953125 C 20.679688 -13.609375 20.921875 -12.125 20.921875 -10.5 C 20.921875 -8.875 20.679688 -7.382812 20.203125 -6.03125 C 19.722656 -4.644531 19.066406 -3.515625 18.234375 -2.640625 C 17.359375 -1.722656 16.296875 -1.007812 15.046875 -0.5 C 13.828125 0 12.453125 0.25 10.921875 0.25 C 9.367188 0.25 7.988281 0 6.78125 -0.5 C 5.53125 -1.007812 4.46875 -1.722656 3.59375 -2.640625 C 2.78125 -3.492188 2.109375 -4.625 1.578125 -6.03125 Z M 4.703125 -10.421875 C 4.703125 -9.367188 4.84375 -8.265625 5.125 -7.109375 C 5.351562 -6.148438 5.738281 -5.320312 6.28125 -4.625 C 6.757812 -3.988281 7.398438 -3.5 8.203125 -3.15625 C 9.097656 -2.757812 10.003906 -2.5625 10.921875 -2.5625 C 13.046875 -2.5625 14.585938 -3.25 15.546875 -4.625 C 16.566406 -6.09375 17.078125 -8.035156 17.078125 -10.453125 C 17.078125 -12.878906 16.566406 -14.828125 15.546875 -16.296875 C 14.585938 -17.660156 13.046875 -18.34375 10.921875 -18.34375 C 9.859375 -18.34375 8.953125 -18.179688 8.203125 -17.859375 C 7.484375 -17.554688 6.84375 -17.035156 6.28125 -16.296875 C 5.738281 -15.585938 5.351562 -14.757812 5.125 -13.8125 C 4.84375 -12.65625 4.703125 -11.523438 4.703125 -10.421875 Z M 4.703125 -10.421875 "/></g></g></g><g fill="#000000" fill-opacity="1"><g transform="translate(234.678435, 162.827274)"><g><path d="M 0.40625 1.984375 C 0.40625 0.972656 0.738281 0.09375 1.40625 -0.65625 C 2.082031 -1.414062 2.992188 -2 4.140625 -2.40625 C 3.535156 -2.644531 3.0625 -3.015625 2.71875 -3.515625 C 2.375 -4.015625 2.203125 -4.632812 2.203125 -5.375 C 2.203125 -5.539062 2.253906 -5.84375 2.359375 -6.28125 C 2.441406 -6.613281 2.601562 -6.941406 2.84375 -7.265625 C 3.082031 -7.585938 3.375 -7.898438 3.71875 -8.203125 C 3.769531 -8.253906 4.160156 -8.492188 4.890625 -8.921875 C 3.847656 -9.515625 3.03125 -10.289062 2.4375 -11.25 C 1.863281 -12.1875 1.578125 -13.300781 1.578125 -14.59375 C 1.578125 -15.664062 1.765625 -16.585938 2.140625 -17.359375 C 2.546875 -18.191406 3.097656 -18.898438 3.796875 -19.484375 C 4.484375 -20.046875 5.335938 -20.492188 6.359375 -20.828125 C 7.296875 -21.140625 8.359375 -21.296875 9.546875 -21.296875 L 9.46875 -21.21875 C 10.375 -21.21875 11.210938 -21.117188 11.984375 -20.921875 C 12.734375 -20.722656 13.445312 -20.414062 14.125 -20 L 19.84375 -20 L 19.84375 -18.65625 C 19.84375 -18.195312 19.550781 -17.90625 18.96875 -17.78125 L 16.609375 -17.4375 C 17.054688 -16.644531 17.28125 -15.65625 17.28125 -14.46875 C 17.28125 -13.425781 17.082031 -12.503906 16.6875 -11.703125 C 16.257812 -10.816406 15.726562 -10.113281 15.09375 -9.59375 C 14.34375 -8.96875 13.515625 -8.503906 12.609375 -8.203125 C 11.703125 -7.890625 10.65625 -7.734375 9.46875 -7.734375 C 8.488281 -7.734375 7.566406 -7.851562 6.703125 -8.09375 C 6.328125 -7.863281 6 -7.5625 5.71875 -7.1875 C 5.488281 -6.875 5.375 -6.570312 5.375 -6.28125 C 5.375 -5.769531 5.566406 -5.398438 5.953125 -5.171875 C 6.441406 -4.867188 6.976562 -4.6875 7.5625 -4.625 C 8.457031 -4.519531 9.210938 -4.46875 9.828125 -4.46875 C 10.378906 -4.46875 11.234375 -4.410156 12.390625 -4.296875 C 13.816406 -4.160156 14.671875 -4.066406 14.953125 -4.015625 C 15.773438 -3.859375 16.535156 -3.609375 17.234375 -3.265625 C 17.859375 -2.972656 18.398438 -2.488281 18.859375 -1.8125 C 19.242188 -1.25 19.4375 -0.476562 19.4375 0.5 C 19.4375 1.46875 19.21875 2.351562 18.78125 3.15625 C 18.363281 3.894531 17.695312 4.632812 16.78125 5.375 C 15.96875 6.019531 14.953125 6.539062 13.734375 6.9375 C 12.546875 7.332031 11.164062 7.53125 9.59375 7.53125 C 7.988281 7.53125 6.632812 7.375 5.53125 7.0625 C 4.363281 6.738281 3.414062 6.328125 2.6875 5.828125 C 1.914062 5.304688 1.347656 4.71875 0.984375 4.0625 C 0.597656 3.34375 0.40625 2.648438 0.40625 1.984375 Z M 3.671875 1.65625 C 3.671875 2.101562 3.796875 2.539062 4.046875 2.96875 C 4.304688 3.394531 4.679688 3.742188 5.171875 4.015625 C 5.722656 4.328125 6.34375 4.554688 7.03125 4.703125 C 7.832031 4.878906 8.710938 4.96875 9.671875 4.96875 C 10.453125 4.96875 11.332031 4.863281 12.3125 4.65625 C 13.03125 4.507812 13.695312 4.253906 14.3125 3.890625 C 14.851562 3.566406 15.265625 3.175781 15.546875 2.71875 C 15.859375 2.207031 16.015625 1.710938 16.015625 1.234375 L 16.046875 1.234375 C 16.046875 0.734375 15.90625 0.320312 15.625 0 C 15.332031 -0.332031 14.9375 -0.582031 14.4375 -0.75 C 13.90625 -0.925781 13.335938 -1.046875 12.734375 -1.109375 C 11.648438 -1.242188 10.957031 -1.316406 10.65625 -1.328125 C 10.414062 -1.347656 10.054688 -1.363281 9.578125 -1.375 C 9.097656 -1.382812 8.734375 -1.394531 8.484375 -1.40625 C 8.328125 -1.425781 7.617188 -1.507812 6.359375 -1.65625 C 5.578125 -1.289062 4.929688 -0.832031 4.421875 -0.28125 C 3.921875 0.257812 3.671875 0.90625 3.671875 1.65625 Z M 4.96875 -14.359375 C 4.96875 -13.765625 5.078125 -13.195312 5.296875 -12.65625 C 5.515625 -12.082031 5.800781 -11.640625 6.15625 -11.328125 C 6.601562 -10.929688 7.085938 -10.640625 7.609375 -10.453125 C 8.160156 -10.265625 8.796875 -10.171875 9.515625 -10.171875 L 9.515625 -10.09375 C 10.210938 -10.09375 10.867188 -10.203125 11.484375 -10.421875 C 12.015625 -10.609375 12.5 -10.894531 12.9375 -11.28125 C 13.34375 -11.644531 13.632812 -12.101562 13.8125 -12.65625 C 14 -13.25 14.09375 -13.816406 14.09375 -14.359375 C 14.09375 -15.628906 13.691406 -16.640625 12.890625 -17.390625 C 12.097656 -18.148438 10.96875 -18.53125 9.5 -18.53125 C 8.039062 -18.53125 6.910156 -18.15625 6.109375 -17.40625 C 5.347656 -16.675781 4.96875 -15.660156 4.96875 -14.359375 Z M 4.96875 -14.359375 "/></g></g></g><g fill="#000000" fill-opacity="1"><g transform="translate(255.626993, 162.827274)"><g><path d="M 1.40625 0 L 1.40625 -1.734375 C 1.40625 -2.179688 1.609375 -2.441406 2.015625 -2.515625 L 4.375 -2.96875 L 4.375 -17.90625 C 3.039062 -18.144531 2.253906 -18.304688 2.015625 -18.390625 C 1.609375 -18.472656 1.40625 -18.734375 1.40625 -19.171875 L 1.40625 -20.921875 L 6.5 -20.921875 C 6.875 -20.921875 7.128906 -20.851562 7.265625 -20.71875 C 7.410156 -20.5625 7.523438 -20.296875 7.609375 -19.921875 L 7.859375 -16.65625 L 7.890625 -16.65625 C 9.421875 -19.78125 11.546875 -21.34375 14.265625 -21.34375 C 15.347656 -21.34375 16.300781 -21.09375 17.125 -20.59375 L 16.65625 -17.828125 C 16.5625 -17.460938 16.382812 -17.28125 16.125 -17.28125 C 15.914062 -17.28125 15.585938 -17.347656 15.140625 -17.484375 C 14.640625 -17.628906 14.070312 -17.703125 13.4375 -17.703125 C 11.019531 -17.703125 9.226562 -16.234375 8.0625 -13.296875 L 8.0625 -2.96875 C 8.15625 -2.9375 8.304688 -2.90625 8.515625 -2.875 C 8.722656 -2.84375 9.003906 -2.789062 9.359375 -2.71875 C 9.722656 -2.65625 10.078125 -2.585938 10.421875 -2.515625 C 10.835938 -2.441406 11.046875 -2.179688 11.046875 -1.734375 L 11.046875 0 Z M 1.40625 0 "/></g></g></g><g fill="#000000" fill-opacity="1"><g transform="translate(273.467576, 162.827274)"><g><path d="M 0.984375 -5.296875 C 0.984375 -6.179688 1.207031 -6.976562 1.65625 -7.6875 C 2.132812 -8.457031 2.878906 -9.144531 3.890625 -9.75 C 5.015625 -10.40625 6.335938 -10.90625 7.859375 -11.25 C 9.515625 -11.613281 11.523438 -11.796875 13.890625 -11.796875 L 13.890625 -13.40625 C 13.890625 -15.050781 13.53125 -16.289062 12.8125 -17.125 C 12.09375 -17.96875 11.054688 -18.390625 9.703125 -18.390625 C 8.828125 -18.390625 8.070312 -18.265625 7.4375 -18.015625 C 6.8125 -17.773438 6.289062 -17.53125 5.875 -17.28125 C 5.101562 -16.820312 4.695312 -16.570312 4.65625 -16.53125 C 4.375 -16.3125 4.0625 -16.203125 3.71875 -16.203125 C 3.4375 -16.203125 3.21875 -16.257812 3.0625 -16.375 C 2.875 -16.507812 2.734375 -16.675781 2.640625 -16.875 L 1.984375 -18.03125 C 3.046875 -19.0625 4.289062 -19.890625 5.71875 -20.515625 C 6.96875 -21.066406 8.453125 -21.34375 10.171875 -21.34375 C 11.378906 -21.34375 12.421875 -21.144531 13.296875 -20.75 C 14.210938 -20.34375 14.972656 -19.816406 15.578125 -19.171875 C 16.203125 -18.515625 16.675781 -17.6875 17 -16.6875 C 17.289062 -15.789062 17.4375 -14.722656 17.4375 -13.484375 L 17.4375 -3.03125 C 18.65625 -2.769531 19.347656 -2.613281 19.515625 -2.5625 L 19.515625 -2.640625 C 19.691406 -2.597656 19.835938 -2.503906 19.953125 -2.359375 C 20.066406 -2.210938 20.125 -2.046875 20.125 -1.859375 L 20.125 -0.078125 L 15.828125 -0.078125 C 15.566406 -0.078125 15.273438 -0.132812 14.953125 -0.25 C 14.785156 -0.300781 14.65625 -0.519531 14.5625 -0.90625 L 14.125 -2.890625 C 13.820312 -2.628906 13.269531 -2.175781 12.46875 -1.53125 C 11.9375 -1.101562 11.394531 -0.773438 10.84375 -0.546875 C 10.144531 -0.242188 9.53125 -0.0351562 9 0.078125 C 8.445312 0.210938 7.707031 0.28125 6.78125 0.28125 C 6 0.28125 5.253906 0.160156 4.546875 -0.078125 C 3.710938 -0.359375 3.09375 -0.6875 2.6875 -1.0625 C 2.1875 -1.519531 1.773438 -2.101562 1.453125 -2.8125 C 1.140625 -3.476562 0.984375 -4.304688 0.984375 -5.296875 Z M 4.46875 -5.453125 C 4.46875 -5.015625 4.566406 -4.550781 4.765625 -4.0625 C 4.941406 -3.644531 5.179688 -3.3125 5.484375 -3.0625 C 5.804688 -2.820312 6.171875 -2.640625 6.578125 -2.515625 C 7.023438 -2.390625 7.476562 -2.328125 7.9375 -2.328125 C 8.488281 -2.328125 9.066406 -2.390625 9.671875 -2.515625 C 10.171875 -2.628906 10.679688 -2.8125 11.203125 -3.0625 C 11.597656 -3.25 12.054688 -3.554688 12.578125 -3.984375 C 12.847656 -4.191406 13.257812 -4.570312 13.8125 -5.125 L 13.8125 -9.421875 C 12.019531 -9.421875 10.585938 -9.328125 9.515625 -9.140625 C 8.523438 -8.960938 7.5625 -8.675781 6.625 -8.28125 C 5.832031 -7.9375 5.28125 -7.519531 4.96875 -7.03125 C 4.632812 -6.5 4.46875 -5.972656 4.46875 -5.453125 Z M 4.46875 -5.453125 "/></g></g></g><g fill="#000000" fill-opacity="1"><g transform="translate(294.658314, 162.827274)"><g><path d="M 0.578125 5.328125 C 0.578125 4.878906 0.796875 4.617188 1.234375 4.546875 L 3.546875 4.09375 L 3.546875 -17.90625 C 2.273438 -18.132812 1.503906 -18.296875 1.234375 -18.390625 C 0.796875 -18.472656 0.578125 -18.734375 0.578125 -19.171875 L 0.578125 -20.921875 L 5.796875 -20.921875 C 6.296875 -20.921875 6.625 -20.671875 6.78125 -20.171875 L 7.0625 -17.703125 L 7.109375 -17.703125 C 9.097656 -20.128906 11.4375 -21.34375 14.125 -21.34375 C 16.582031 -21.34375 18.515625 -20.429688 19.921875 -18.609375 C 21.359375 -16.671875 22.078125 -13.992188 22.078125 -10.578125 C 22.078125 -7.441406 21.28125 -4.863281 19.6875 -2.84375 C 18 -0.757812 15.867188 0.28125 13.296875 0.28125 C 10.734375 0.28125 8.722656 -0.523438 7.265625 -2.140625 L 7.265625 4.0625 C 7.316406 4.0625 7.691406 4.140625 8.390625 4.296875 C 9.109375 4.460938 9.507812 4.546875 9.59375 4.546875 C 10.03125 4.640625 10.25 4.898438 10.25 5.328125 L 10.25 7.109375 L 0.578125 7.109375 Z M 7.265625 -5.046875 C 8.503906 -3.390625 10.109375 -2.5625 12.078125 -2.5625 C 14.117188 -2.5625 15.65625 -3.25 16.6875 -4.625 C 17.738281 -6.007812 18.265625 -7.992188 18.265625 -10.578125 C 18.265625 -15.753906 16.476562 -18.34375 12.90625 -18.34375 C 10.738281 -18.34375 8.859375 -17.289062 7.265625 -15.1875 Z M 7.265625 -5.046875 "/></g></g></g><g fill="#000000" fill-opacity="1"><g transform="translate(317.625037, 162.827274)"><g><path d="M 0.984375 -28.6875 L 0.984375 -30.421875 L 8.09375 -30.421875 L 8.09375 -18.109375 C 10.113281 -20.203125 12.347656 -21.25 14.796875 -21.25 C 17.046875 -21.25 18.78125 -20.53125 20 -19.09375 C 21.21875 -17.65625 21.828125 -15.722656 21.828125 -13.296875 L 21.828125 -3.03125 C 23.066406 -2.800781 23.851562 -2.628906 24.1875 -2.515625 C 24.601562 -2.441406 24.8125 -2.179688 24.8125 -1.734375 L 24.8125 0 L 18.15625 0 L 18.15625 -13.296875 C 18.15625 -16.640625 16.679688 -18.3125 13.734375 -18.3125 C 11.722656 -18.3125 9.84375 -17.332031 8.09375 -15.375 L 8.09375 -2.96875 L 8.59375 -2.890625 C 9.582031 -2.703125 10.191406 -2.578125 10.421875 -2.515625 C 10.859375 -2.421875 11.078125 -2.160156 11.078125 -1.734375 L 11.078125 0 L 1.40625 0 L 1.40625 -1.734375 C 1.40625 -2.179688 1.625 -2.441406 2.0625 -2.515625 L 4.375 -2.96875 L 4.375 -27.421875 C 2.800781 -27.660156 1.894531 -27.820312 1.65625 -27.90625 C 1.207031 -28 0.984375 -28.257812 0.984375 -28.6875 Z M 0.984375 -28.6875 "/></g></g></g><g fill="#000000" fill-opacity="1"><g transform="translate(343.457544, 162.827274)"><g><path d="M 0.578125 -19.171875 L 0.578125 -20.953125 L 9.96875 -20.953125 L 9.96875 -19.171875 C 9.96875 -18.753906 9.757812 -18.507812 9.34375 -18.4375 C 9.070312 -18.34375 8.300781 -18.179688 7.03125 -17.953125 L 11.703125 -7.03125 C 11.816406 -6.769531 11.992188 -6.132812 12.234375 -5.125 C 12.410156 -5.707031 12.632812 -6.34375 12.90625 -7.03125 L 17.40625 -17.953125 C 17.082031 -18.015625 16.765625 -18.078125 16.453125 -18.140625 C 16.140625 -18.203125 15.863281 -18.253906 15.625 -18.296875 C 15.382812 -18.347656 15.222656 -18.378906 15.140625 -18.390625 C 14.753906 -18.472656 14.5625 -18.734375 14.5625 -19.171875 L 14.5625 -20.921875 L 22.328125 -20.921875 L 23.828125 -20.953125 L 23.828125 -19.171875 C 23.828125 -18.753906 23.613281 -18.507812 23.1875 -18.4375 C 23.15625 -18.4375 23.09375 -18.425781 23 -18.40625 C 22.90625 -18.382812 22.769531 -18.347656 22.59375 -18.296875 C 22.414062 -18.253906 22.242188 -18.21875 22.078125 -18.1875 C 21.429688 -18.050781 21.082031 -17.984375 21.03125 -17.984375 L 10.65625 6.15625 C 10.40625 6.757812 9.96875 7.0625 9.34375 7.0625 L 6.625 7.0625 L 10.421875 -1.234375 L 3.0625 -18.03125 C 2.1875 -18.175781 1.5625 -18.3125 1.1875 -18.4375 C 0.78125 -18.507812 0.578125 -18.753906 0.578125 -19.171875 Z M 0.578125 -19.171875 "/></g></g></g></svg>